<svg xmlns="http://www.w3.org/2000/svg" width="80" height="80"><g fill="#a0a0a0"><path d="M39.715 26.558c-7.207 0-13.074 5.865-13.074 13.076 0 4.01 1.828 7.727 5.023 10.242a.845.845 0 0 0 .223.223c.02.012 1.715 1.152 1.715 3.338 0 .033.035.055.035.09.004.029-.023.055-.016.084l2.145 9.801a.818.818 0 0 0 .801.643h6.301a.825.825 0 0 0 .801-.643l2.148-9.801c.008-.029-.023-.055-.02-.084.004-.035.039-.057.039-.09 0-2.156 1.641-3.295 1.707-3.338a.732.732 0 0 0 .18-.184c3.223-2.516 5.066-6.252 5.066-10.281 0-7.211-5.863-13.076-13.074-13.076zm2.492 35.857h-4.98l-.176-.807h5.332l-.176.807zm.535-2.447h-6.051l-.18-.813h6.41l-.179.813zm.539-2.453h-7.129l-.711-3.26H44l-.719 3.26zm3.293-8.782a.692.692 0 0 0-.176.178c-.547.441-1.852 1.68-2.145 3.705h-3.719V41.183c0-.898.734-1.633 1.633-1.633.449 0 .82-.367.82-.82s-.371-.82-.82-.82c-.992 0-1.852.469-2.453 1.166-.059-.068-.078-.15-.145-.213a3.22 3.22 0 0 0-2.293-.953h-.012a.82.82 0 0 0 .004 1.64h.008c.426 0 .832.166 1.141.475.309.305.48.719.48 1.158v11.434h-3.715c-.289-2.016-1.586-3.252-2.141-3.701a.83.83 0 0 0-.18-.18c-2.914-2.203-4.582-5.52-4.582-9.102 0-6.307 5.129-11.436 11.434-11.436 6.309 0 11.438 5.129 11.438 11.436.001 3.58-1.671 6.894-4.577 9.099zM40.004 23.362c.449 0 .82-.367.82-.818v-5.508a.822.822 0 0 0-.82-.82.816.816 0 0 0-.816.82v5.508c0 .451.363.818.816.818zM27.742 27.96c.164.162.371.24.582.24a.82.82 0 0 0 .578-1.4l-3.891-3.893a.817.817 0 0 0-1.16 0 .828.828 0 0 0 0 1.16l3.891 3.893zM24.309 39.06a.82.82 0 0 0-.816-.82h-5.516a.821.821 0 0 0 0 1.64h5.516a.82.82 0 0 0 .816-.82zM27.754 50.155l-3.902 3.896a.821.821 0 1 0 .582 1.4c.203 0 .418-.08.578-.242l3.898-3.895a.819.819 0 0 0-1.156-1.159zM52.258 50.858a.827.827 0 0 0-1.16 0 .814.814 0 0 0 0 1.16l3.891 3.902a.82.82 0 0 0 1.16-1.158l-3.891-3.904zM62.023 38.239l-5.508-.006a.818.818 0 1 0 0 1.636l5.508.01c.453 0 .82-.365.82-.82a.818.818 0 0 0-.82-.82zM51.676 28.198c.207 0 .418-.08.582-.242l3.898-3.891a.82.82 0 0 0-1.16-1.16l-3.898 3.893a.811.811 0 0 0 0 1.158.799.799 0 0 0 .578.242z"/></g></svg>