<svg xmlns="http://www.w3.org/2000/svg" width="80" height="80"><g fill="#a0a0a0"><path d="M23.281 27.024c1.16 0 2.102-.941 2.102-2.1a2.1 2.1 0 0 0-2.102-2.096 2.098 2.098 0 0 0 0 4.196zm0-2.555c.262 0 .465.199.465.455 0 .514-.918.525-.918 0 0-.248.203-.455.453-.455z"/><path d="M62.023 18.604h-44.05a.822.822 0 0 0-.816.818v44.047c0 .453.371.82.816.82h44.051c.449 0 .82-.367.82-.82V19.422a.824.824 0 0 0-.821-.818zm-.82 1.639v9.367h-42.41v-9.367h42.41zm-42.41 42.408v-31.4h42.41v31.4h-42.41z"/><path d="M39.93 27.088a2.161 2.161 0 0 0 0-4.322 2.164 2.164 0 0 0-2.164 2.158c0 1.194.972 2.164 2.164 2.164zm0-2.683a.52.52 0 0 1 .52.52c0 .578-1.043.572-1.043 0a.524.524 0 0 1 .523-.52zM31.578 27.088a2.161 2.161 0 1 0-2.164-2.164c0 1.194.969 2.164 2.164 2.164zm0-2.683c.285 0 .52.234.52.52 0 .578-1.047.572-1.047 0 0-.286.238-.52.527-.52z"/></g></svg>